<?xml version="1.0" encoding="UTF-8" standalone="no"?>
<svg
   xmlns:dc="http://purl.org/dc/elements/1.1/"
   xmlns:cc="http://creativecommons.org/ns#"
   xmlns:rdf="http://www.w3.org/1999/02/22-rdf-syntax-ns#"
   xmlns:svg="http://www.w3.org/2000/svg"
   xmlns="http://www.w3.org/2000/svg"
   xmlns:sodipodi="http://sodipodi.sourceforge.net/DTD/sodipodi-0.dtd"
   xmlns:inkscape="http://www.inkscape.org/namespaces/inkscape"
   version="1.1"
   id="Ebene_1"
   x="0px"
   y="0px"
   width="99.530273"
   height="75.421997"
   viewBox="0 0 99.530273 75.421997"
   enable-background="new 0 0 90 90"
   xml:space="preserve"
   inkscape:version="0.48.2 r9819"
   sodipodi:docname="headphones.svg"><metadata
   id="metadata17"><rdf:RDF><cc:Work
       rdf:about=""><dc:format>image/svg+xml</dc:format><dc:type
         rdf:resource="http://purl.org/dc/dcmitype/StillImage" /><dc:title></dc:title></cc:Work></rdf:RDF></metadata><defs
   id="defs15" /><sodipodi:namedview
   pagecolor="#ffffff"
   bordercolor="#666666"
   borderopacity="1"
   objecttolerance="10"
   gridtolerance="10"
   guidetolerance="10"
   inkscape:pageopacity="0"
   inkscape:pageshadow="2"
   inkscape:window-width="1225"
   inkscape:window-height="653"
   id="namedview13"
   showgrid="false"
   fit-margin-top="0"
   fit-margin-left="0"
   fit-margin-right="0"
   fit-margin-bottom="0"
   inkscape:zoom="2.6222222"
   inkscape:cx="48.64539"
   inkscape:cy="35.242119"
   inkscape:window-x="48"
   inkscape:window-y="140"
   inkscape:window-maximized="0"
   inkscape:current-layer="Ebene_1" />
<path
   d="m 81.313192,36.4328 c -1.649643,-0.279948 -3.363469,-0.43426 -5.125091,-0.43426 -1.627794,0 -2.949693,1.321899 -2.949693,2.949692 v 33.524075 c 0,1.627794 1.321899,2.949693 2.949693,2.949693 1.761622,0 3.475448,-0.152947 5.125091,-0.432895 V 36.4328 z"
   id="path3"
   inkscape:connector-curvature="0" />
<path
   d="M 86.738714,37.913109 V 73.508797 C 94.32188,70.590513 99.53027,64.635138 99.53027,57.774372 v -4.126839 c 0,-6.860766 -5.20839,-12.817506 -12.791556,-15.734424 z"
   id="path5"
   inkscape:connector-curvature="0" />
<path
   d="m 48.712261,5.4255224 h 2.107118 c 16.347579,0 29.730443,13.7747916 30.462404,30.9990836 l 5.458297,1.488503 C 86.74008,17.007163 70.627384,0 50.819379,0 h -2.107118 -0.03004 C 28.874216,0 12.76152,17.007163 12.76152,37.913109 l 5.458297,-1.488503 C 18.951775,19.200314 32.334639,5.4255224 48.682218,5.4255224 h 0.03004 z"
   id="path7"
   inkscape:connector-curvature="0" />
<path
   d="m 18.218448,36.4328 c 1.651009,-0.279948 3.363469,-0.43426 5.123726,-0.43426 1.629158,0 2.949692,1.321899 2.949692,2.949692 v 33.524075 c 0,1.627794 -1.320534,2.949693 -2.949692,2.949693 -1.760257,0 -3.472717,-0.152947 -5.123726,-0.432895 V 36.4328 z"
   id="path9"
   inkscape:connector-curvature="0" />
<path
   d="M 12.792926,37.913109 V 73.508797 C 5.209758,70.590513 0,64.635138 0,57.774372 V 53.647533 C 0,46.786767 5.209758,40.830027 12.792926,37.913109 z"
   id="path11"
   inkscape:connector-curvature="0" />
</svg>